<svg xmlns="http://www.w3.org/2000/svg" width="450" height="128.277" viewBox="0 0 450 128.277">
  <g id="CTK-logo" transform="translate(2103 12.99)">
    <g id="Logo" transform="translate(-2103 -12.99)">
      <path id="Tracé_24" data-name="Tracé 24" d="M269.34,12.667h14.977V56.805h12.2V12.667h14.738V1.57H269.34Z" transform="translate(-120.272 -0.701)" fill="#fff"/>
      <path id="Tracé_25" data-name="Tracé 25" d="M416.231,1.571l-21.6,52.257L383.013,35.47a16.714,16.714,0,0,0,9.824-15.685c0-10.305-8.479-18.225-18.779-18.225H350.94V56.79h12.126V38.415h8.163L382.72,56.8h23.688l3.725-9.27h23.057l3.725,9.27h13L427.085,1.571Zm-43.5,26.068h-9.669V12.662h10.7c3.874,0,6.891,3.011,6.891,7.289C380.655,24.628,377.489,27.639,372.735,27.639Zm40.884,10.139,8.08-20.046,8,20.046Z" transform="translate(-156.71 -0.697)" fill="#fff"/>
      <path id="Tracé_26" data-name="Tracé 26" d="M583.924,1.57h-14.5L548.1,26.215V1.57H535.9V56.805h12.2V41.746l6.343-7.051,15.768,22.111h14.34l-21.79-30.75Z" transform="translate(-239.302 -0.701)" fill="#fff"/>
      <path id="Tracé_27" data-name="Tracé 27" d="M644.693,0C628.377,0,615.21,12.6,615.21,28.608s13.156,28.6,29.483,28.6,29.471-12.519,29.471-28.6S661.092,0,644.693,0Zm0,46.12a17.123,17.123,0,0,1-17.279-17.511,17.278,17.278,0,1,1,34.552,0A17.268,17.268,0,0,1,644.693,46.12Z" transform="translate(-274.717 0)" fill="#fff"/>
      <path id="Tracé_28" data-name="Tracé 28" d="M762.839,35.49a16.7,16.7,0,0,0,9.824-15.685c0-10.305-8.474-18.225-18.779-18.225H730.75V56.81h12.121V38.424h8.164l11.49,18.386h13.787Zm-10.3-7.842h-9.669V12.671H753.58c3.874,0,6.9,3.011,6.9,7.289C760.465,24.637,757.294,27.648,752.54,27.648Z" transform="translate(-326.311 -0.705)" fill="#fff"/>
      <path id="Tracé_29" data-name="Tracé 29" d="M29.715,45.882A17.093,17.093,0,0,1,12.2,28.525,17.175,17.175,0,0,1,29.715,11.069,18.729,18.729,0,0,1,43.17,16.725L49.413,7.6A29.167,29.167,0,0,0,29.715,0C13.311,0,0,12.043,0,28.525S13.311,56.973,29.715,56.973a29.217,29.217,0,0,0,19.7-7.588L43.17,40.258a18.723,18.723,0,0,1-13.455,5.623Z" transform="translate(0 0)" fill="#fff"/>
      <path id="Tracé_30" data-name="Tracé 30" d="M109.564,33.9h23.848V23.044H109.564V12.667h25.514V1.57H97.36V56.805h38.272v-11.1H109.564Z" transform="translate(-43.475 -0.701)" fill="#fff"/>
      <path id="Tracé_31" data-name="Tracé 31" d="M212.04,35.884,185.573,1.57H174.72V56.805h11.805V21.539l27.335,35.266h9.984V1.57H212.04Z" transform="translate(-78.02 -0.701)" fill="#fff"/>
    </g>
    <g id="logo-subtitle" transform="translate(-2079.961 58.043)">
      <path id="Tracé_38" data-name="Tracé 38" d="M2516.317,53.231l.353-.186c2.65-1.4,4.511-3.617,6.312-5.764a33.219,33.219,0,0,1,3.6-3.86,1.783,1.783,0,0,0,.693-1.314.863.863,0,0,0-.466-.682c-.042-.023-.086-.051-.146-.088a1.478,1.478,0,0,0-2.143.124c-.854,1.026-1.738,2.058-2.592,3.058l-.026.03c-.839.979-1.706,1.992-2.543,3-.277.333-.546.674-.809,1.012-.47.593-.955,1.206-1.476,1.769-.587.635-1.316,1.426-.9,2.53Z" transform="translate(-2176.714 -35.404)" fill="#fff"/>
      <path id="Tracé_39" data-name="Tracé 39" d="M2933.269.889a1.225,1.225,0,0,0-.74-.735,1.33,1.33,0,0,0-1.12-.057,1.927,1.927,0,0,0-.821,1.349,3.2,3.2,0,0,1-.111.353,47.412,47.412,0,0,0-1.559,4.742l-.2.7a181.96,181.96,0,0,0-4.406,19.41c-.1.588-.242,1.194-.376,1.787a16.722,16.722,0,0,0-.6,4.936l.031.432.417-.117a1.36,1.36,0,0,0,1.053-1.125l.042-.144c1-3.2,1.743-6.509,2.466-9.724.448-2,.91-4.058,1.435-6.085.348-1.349.649-2.731.944-4.074a42.711,42.711,0,0,1,3-9.871c.031-.065.078-.135.135-.237A1.912,1.912,0,0,0,2933.269.889Z" transform="translate(-2529.039 0.002)" fill="#fff"/>
      <path id="Tracé_40" data-name="Tracé 40" d="M275.357,105.906a1.729,1.729,0,0,0,.616.127c.84,0,1.165-.831,1.439-1.529.058-.146.116-.3.2-.508a3.934,3.934,0,0,1,.125-.421c.225-.666.6-1.783-.69-2.31a1.344,1.344,0,0,0-1.1-.039,2.156,2.156,0,0,0-.923,1.442c-.051.156-.1.308-.156.441-.043.1-.093.209-.143.317a2.158,2.158,0,0,0-.3,1.694A1.456,1.456,0,0,0,275.357,105.906Z" transform="translate(-237.347 -87.486)" fill="#fff"/>
      <path id="Tracé_41" data-name="Tracé 41" d="M2909.733,282.814a2.115,2.115,0,0,0-2.277.4,1.149,1.149,0,0,0-.235.892,2.114,2.114,0,0,0,2.023,2.023h.051a1.7,1.7,0,0,0,1.25-.557,1.827,1.827,0,0,0,.4-1.419A1.659,1.659,0,0,0,2909.733,282.814Z" transform="translate(-2515.112 -244.536)" fill="#fff"/>
      <path id="Tracé_42" data-name="Tracé 42" d="M67.813,36.97a1.81,1.81,0,0,0-.506.05c-.08.015-.158.031-.229.039-.351.039-.763.081-1.169.094a3.2,3.2,0,0,1-1.509-.209c-.855-.423-1.036-1.587-1.183-2.522l-.038-.237a6.436,6.436,0,0,1,.388-3.33,1.9,1.9,0,0,0-.8-2.6c-1.029-.72-1.826.12-2.467.793-.076.08-.148.156-.22.228a26.9,26.9,0,0,0-3.321,4.169c-.182.27-.351.566-.514.846s-.326.561-.5.832c-.361.55-.78,1.079-1.184,1.581l-.12.15c-.02.024-.1.092-.174.163,0-.169.02-.339.038-.515.016-.152.031-.3.036-.456a7.507,7.507,0,0,1,.189-1.237c.1-.452.217-.908.333-1.349s.232-.875.328-1.318A51.564,51.564,0,0,0,56.08,27c.028-.255.092-.539.152-.825.212-.96.5-2.277-.854-2.718-1.384-.452-2.08,1.269-2.455,2.2l-.125.3a35.7,35.7,0,0,1-6.981,9.98,9.01,9.01,0,0,1-2.61,1.935c.051-.062.1-.124.152-.187,2.437-3.09,5.2-6.594,4.816-11.533a3.968,3.968,0,0,0-2.333-3.489c-1.28-.62-2.3.539-3.045,1.386l-.05.057c-2.544,2.886-3.582,6.744-3.173,11.8a1.7,1.7,0,0,1-.708,1.792,2.716,2.716,0,0,1-2.411.309,2.419,2.419,0,0,1-.887-1.7c-.442-3.014.062-6.053,1.637-9.855a3.23,3.23,0,0,1,.158-.312c.228-.414.654-1.187-.329-1.744-.924-.523-1.655-.3-2.3.7a12.7,12.7,0,0,1-3.372,3.148l-.252.185c.127-2.136.061-4.192-1.033-5.093a3.312,3.312,0,0,0-2.865-.39A42.721,42.721,0,0,0,31.514,10.5c.529-2.563.91-4.884.221-7.311a2.21,2.21,0,0,0-1.244-1.577,2.07,2.07,0,0,0-1.9.328,7.773,7.773,0,0,0-2.325,2.65l-.254.4c-6.323,9.742-9.209,18.383-9.09,27.2,0,.1.008.192.016.287a.834.834,0,0,1-.341.92C13.352,35.842,10,38.378,5.958,39.6c-.183.057-.379.127-.6.2a2.924,2.924,0,0,1-2.15.26,1.92,1.92,0,0,1-.831-1.283.776.776,0,0,0-.4-.5,1.317,1.317,0,0,0-1,.008A1.525,1.525,0,0,0,0,39.82a3.058,3.058,0,0,0,1.318,2.255,3.208,3.208,0,0,0,1.915.742,1.986,1.986,0,0,0,.5-.062,36.153,36.153,0,0,0,12.121-6.106A7.8,7.8,0,0,0,16.5,36.1a2.582,2.582,0,0,1,.576-.449c.009,0,.217.1.477,1.372.4,1.958,1.214,3.225,2.4,3.762,1.223.554,2.765.312,4.586-.716,2.278-1.293,3.535-3.548,4.627-5.747a11.084,11.084,0,0,1,4.532-4.831,17.214,17.214,0,0,0-1.022,5.586c.089,2.416.674,3.991,1.809,4.815a4.414,4.414,0,0,0,3.1.674,8.561,8.561,0,0,0,1.552-.3,2.841,2.841,0,0,0,.325-.135c.182-.084.606-.281.7-.213,2.684,1.954,4.571.186,6.236-1.374a41.219,41.219,0,0,0,4.824-5.762c.584-.788,1.184-1.6,1.814-2.406-.1.885-.285,1.736-.475,2.629l-.047.218a30.386,30.386,0,0,0-.549,3.538,18.522,18.522,0,0,0-.093,2.553l.007.15c.027.674.061,1.52.918,1.72.9.212,1.69-.539,2.212-1.038a10.155,10.155,0,0,0,1.589-2.018q.326-.518.661-1.032c.245-.38.491-.759.735-1.153a34.084,34.084,0,0,1,2.517-3.67c-.013.329-.034.647-.053.958a12.877,12.877,0,0,0,.018,2.7,4.293,4.293,0,0,0,3.4,3.911,3.93,3.93,0,0,0,3-.722A4.962,4.962,0,0,0,68,38c.2-.27.4-.553.3-.788C68.231,37.074,68.074,36.994,67.813,36.97Zm-21.969-8.7a17.975,17.975,0,0,1-3.674,7.4c-.16.22-.244.3-.3.325.05-.579.088-1.144.125-1.7v-.039a25.049,25.049,0,0,1,.824-5.164l.02-.076c.093-.329.248-.879.468-1.454.368-.963.944-2.046,1.67-2.046a.763.763,0,0,1,.24.039C45.9,25.785,46.051,27.127,45.844,28.274ZM24.911,36.621h0a8.582,8.582,0,0,1-1.1,1.036,2.484,2.484,0,0,1-2.221.6,2.237,2.237,0,0,1-1.4-1.574c-.588-1.783-.873-2.944.63-4.3a18.932,18.932,0,0,0,2.832-3.536c.236-.352.475-.7.718-1.045l.777-1.172v.054c-.053,2.1.1,4.243,2.5,5.387-.011.035-.023.069-.027.078l-.046.1a1.155,1.155,0,0,0-.165.27c-.077.192-.163.387-.255.588A16.469,16.469,0,0,1,25.08,36.44C25.015,36.5,24.965,36.56,24.911,36.621Zm-.518-12.747a28.129,28.129,0,0,1-5.009,6.85,37.658,37.658,0,0,1,2.448-12.453A52.682,52.682,0,0,1,28.555,5.238l.092-.135c.055-.085.112-.167.169-.245l.02-.031L28.9,4.74a.53.53,0,0,1,.034-.043c.018-.023.035-.043.054-.065l.049-.054a.554.554,0,0,1,.039-.04q.032-.032.065-.061l.026-.019a.675.675,0,0,1,.08-.053l.019,0a.287.287,0,0,1,.084-.027h.015a.227.227,0,0,1,.09,0c.316.094.352.345.3,1.067-.007.1-.013.2-.016.29q-.055,1.744-.276,3.477a39.611,39.611,0,0,1-5.072,14.666Zm4.691,2.8a4.2,4.2,0,0,1-.4,1.8c-.009.023-.045.081-.088.158-.12.209-.2.36-.258.473a2.471,2.471,0,0,1-.36-3.219.645.645,0,0,1,.459-.22h.043a.4.4,0,0,1,.293.105,1.312,1.312,0,0,1,.316.908Z" transform="translate(0.001 -1.299)" fill="#fff"/>
      <path id="Tracé_43" data-name="Tracé 43" d="M1076.427,170.075a4.834,4.834,0,0,0-1.859.816l-.28.171c-.318.191-.63.394-.944.6a15.356,15.356,0,0,1-1.914,1.115,7.3,7.3,0,0,1-4.831.442,2.211,2.211,0,0,1-1.582-1.04c-.426-.9.27-1.906.9-2.79l.081-.116a11.134,11.134,0,0,0,1.947-5.3c.112-1.183-.155-2.6-1.242-3.025a2.714,2.714,0,0,0-2.563.736,8.219,8.219,0,0,0-2.877,6.365c0,.155.011.313.017.473a3.3,3.3,0,0,1-.436,2.345,1.531,1.531,0,0,1-1.426.483,2.476,2.476,0,0,1-1.861-1.335,5.643,5.643,0,0,1,.232-4.091l.154-.438a8.14,8.14,0,0,0,.7-3.8,2.031,2.031,0,0,0-.764-1.349.945.945,0,0,0-.776-.147c-.656.166-.88.913-1.011,1.618a19.286,19.286,0,0,1-6.435,11.054c-.294.248-.73.561-1.118.417-.29-.108-.476-.44-.568-1.014-.456-2.87.174-6.035,1.984-9.961l.021-.044a4.381,4.381,0,0,0,.587-2.271,1.809,1.809,0,0,0-.766-1.254,1.177,1.177,0,0,0-.993-.175,2.056,2.056,0,0,0-1.126,1.2c-.469.967-.861,1.985-1.24,2.967s-.778,2.023-1.253,3a18.429,18.429,0,0,1-7.581,7.957,64.705,64.705,0,0,1,2.718-11.815,4.071,4.071,0,0,0,.236-2.78,1.673,1.673,0,0,0-1.405-.944,1.017,1.017,0,0,0-1.006.507,2.1,2.1,0,0,0-.2.781,1.175,1.175,0,0,1-.3.819c-.374.3-.929,0-1.419-.258l-.093-.05a5.335,5.335,0,0,0-4.909.185,9.117,9.117,0,0,0-3.474,3.585,14.72,14.72,0,0,0-1.851,9.441,6.632,6.632,0,0,0,1.06,3.017,3.325,3.325,0,0,0,2.789,1.484,5.128,5.128,0,0,0,2.6-1.214,7.037,7.037,0,0,1,1.818-1.064l-2.212,16.244c-.109.794-.143,1.767.553,2.238a1.16,1.16,0,0,0,.656.2,1.53,1.53,0,0,0,.287-.03,1.83,1.83,0,0,0,1.125-.778,4.4,4.4,0,0,0,.5-2.181c.2-3.876.589-7.79,1.153-11.633a4.567,4.567,0,0,1,.479-1.686,4.731,4.731,0,0,1,1.552-1.392l.061-.042a47.021,47.021,0,0,0,6.712-5.419,4.476,4.476,0,0,1,.464,1.888,4.7,4.7,0,0,0,.539,2.076,3.127,3.127,0,0,0,3.565,1.018,7.154,7.154,0,0,0,3.039-2.353c.168-.2.336-.4.5-.608a13.1,13.1,0,0,1,1.909-2.023,4.347,4.347,0,0,0,7.14,2.327,5.449,5.449,0,0,0,4.328,2.718,11.168,11.168,0,0,0,5.3-.976,10.746,10.746,0,0,0,4.673-3.084c.374-.464.8-1.045.747-1.428a.386.386,0,0,0-.152-.27A.855.855,0,0,0,1076.427,170.075Zm-11.125-5.782a8.222,8.222,0,0,1-1.268,3.489A7.113,7.113,0,0,1,1065.3,164.293Zm-30.926-1.945a1.824,1.824,0,0,1,1.3.317c.363.341.514,1.1.54,2.7.027,1.783-1.333,4.034-2.358,5.573l-.105.159c-.607.916-2.023,3.057-3.253,3.8a1.385,1.385,0,0,1-.819.25c-.809-.082-1.693-1.26-1.3-6.409v-.059a6.723,6.723,0,0,1,1.958-4.03,6.106,6.106,0,0,1,3.523-2.286C1034.05,162.353,1034.22,162.349,1034.376,162.349Z" transform="translate(-887.408 -136.808)" fill="#fff"/>
      <path id="Tracé_44" data-name="Tracé 44" d="M1870.517,86.74h0a2.535,2.535,0,0,0-.743.392,6.135,6.135,0,0,0-.783.707,6.209,6.209,0,0,1-.7.642c-2.368,1.763-4.309,2.44-5.772,2.01a4.564,4.564,0,0,1-2.7-2.711,6.1,6.1,0,0,1,.116-5.994c.709-1.2.692-2.212-.055-3a1.169,1.169,0,0,0-1.714,0,3.462,3.462,0,0,1-.3.194,2.894,2.894,0,0,0-1.249-2.111,3.677,3.677,0,0,0-3.372.007c-3.341,1.333-4.49,4.046-5.236,6.784-.862,3.163-3.08,5.064-5.366,6.659-.174.121-.466.325-.641.281-.135-.032-.213-.2-.286-.353-.018-.034-.034-.067-.049-.1-.656-1.243-1.275-2.418-.283-3.662l.58-.726c2.326-2.905,4.731-5.909,6.178-9.593a26.512,26.512,0,0,0,2-12.446,2.374,2.374,0,0,0-1.223-2.117,2.774,2.774,0,0,0-2.71.491,11.209,11.209,0,0,0-4.027,5.809l-.182.495c-1.772,4.818-3.606,9.8-3.776,15.186v.392c-.01.994-.019,2.119-1.058,2.808l-.245.162a31.219,31.219,0,0,1-5.539,3.159c-2.924,1.187-3.628,1.079-5.788-.912a1.341,1.341,0,0,0-2.388.716,2.3,2.3,0,0,0,1.271,2.666c2.133,1.225,4.3.923,6.526.473a17.6,17.6,0,0,0,6.18-3.044c.387-.258.773-.517,1.163-.767l.074.259c.135.484.286.983.452,1.469.473,1.38,1.01,2.135,1.742,2.452a2.081,2.081,0,0,0,.838.165,4.64,4.64,0,0,0,1.857-.49,10.188,10.188,0,0,0,3.807-2.786q.488-.6.984-1.192c.034-.043.067-.089.1-.135l.023-.034c.02.03.044.061.07.1l.028.036c.108.166.217.33.328.5a3.087,3.087,0,0,0,1.191,1.115c1.185.581,2.536.325,4.009-.763a19.634,19.634,0,0,0,1.5-1.276l.135-.12c.065-.057.209-.181.381-.325.333-.282.613-.522.785-.674,1.471,4.132,2.96,5.605,5.728,5.605.12,0,.243,0,.367-.008a9.886,9.886,0,0,0,6.744-3.13c.116-.12.237-.241.36-.366a8.155,8.155,0,0,0,1.61-1.989.675.675,0,0,0,.053-.63A.816.816,0,0,0,1870.517,86.74ZM1856.3,82.9a4.22,4.22,0,0,1-.724,1.888,11.447,11.447,0,0,1-.91.986l-.237.24a16.032,16.032,0,0,1-1.753,1.474l-.465.357c-.575.446-.85.5-.982.464-.217-.055-.418-.471-.6-.912-.375-.887-.089-2.63.728-4.437.437-.964,2.023-3.641,3.288-3.749h.077a1.023,1.023,0,0,1,.846.54A4.511,4.511,0,0,1,1856.3,82.9Zm-15.375-.179c.166-5.14,3.671-15.014,6.367-17.922,1.478,3.961-2.1,14.02-6.372,17.922Zm-2.378,6.737Z" transform="translate(-1577.241 -53.145)" fill="#fff"/>
      <path id="Tracé_45" data-name="Tracé 45" d="M2318.313,84.04c-.662-.256-1.78.686-2.1,1.1a3.889,3.889,0,0,1-.293.355c-2.451,2.594-5.883,5.755-10.7,7.117a4.076,4.076,0,0,1-.967.179,2.236,2.236,0,0,1-.576.047,9.423,9.423,0,0,0,.062-2.223v-.057a14.065,14.065,0,0,0-.472-3.635,4.919,4.919,0,0,0-3.209-3.585,3.627,3.627,0,0,0-4.229,1.559l-.418.581a21.005,21.005,0,0,0-3.653,6.636c-.722,2.669-2.477,4.414-5.692,5.665a2.749,2.749,0,0,1-2.31-.351,1.857,1.857,0,0,1-.87-.788,6.516,6.516,0,0,1-.219-3.159,15.732,15.732,0,0,1,1.668-5.683c.743-1.42,1.8-3.033,3.309-2.906.127.011.258.027.39.043a2.547,2.547,0,0,0,1.709-.177,1.107,1.107,0,0,0,.568-1.006,1.453,1.453,0,0,0-.826-1.176,4.054,4.054,0,0,0-3.359.194,10.733,10.733,0,0,0-4.444,5.014,13.965,13.965,0,0,0-1.438,4.494,16.567,16.567,0,0,0,.026,3.83c.02.237.041.479.061.727.042.548.046.6-.34.886-.239.175-.481.361-.725.552a9.645,9.645,0,0,1-2.442,1.535,10.362,10.362,0,0,1-2.975.588,1.293,1.293,0,0,1-1.387-.738c-.414-.9.043-1.691.59-2.488a18.43,18.43,0,0,0,3.594-8.888l.027-.309c.094-1.032.237-2.591-1.306-2.993-1.259-.326-2.494.384-3.308,1.9a19.751,19.751,0,0,0-2.562,9.69c.009,1.2-1.122,2.428-2.248,3.1a3.032,3.032,0,0,1-2.781.473c-.551-.3-1.231-1.609-1.651-3.188-.431-1.618-.486-3.147-.135-3.712a45.418,45.418,0,0,0,4.625-9.82c.111-.337.225-.674.339-1.012l.016-.049c.879-2.6,1.79-5.294,1.458-8.22l-.011-.09c-.069-.622-.155-1.393-.944-1.654a1.818,1.818,0,0,0-2.169.56c-.134.181-.283.356-.436.539a8.189,8.189,0,0,0-.637.809,33.736,33.736,0,0,0-3.614,8.362l-.15.453c-.1.3-.25.716-.4.781-.071.03-.237.023-.634-.179a4.6,4.6,0,0,0-4.2.113c-3.461,1.54-5.015,4.658-5.981,7.2a7.11,7.11,0,0,1-2.314,3.273l-.27.205c-2.366,1.79-4.811,3.641-7.838,4.417a3.725,3.725,0,0,1-2.415-.158,1.012,1.012,0,0,1-.211-.212,1.06,1.06,0,0,0-.733-.471,1.018,1.018,0,0,0-.779.378,2.091,2.091,0,0,0-.688,2.07c.215.944,1,1.079,1.577,1.171,2.858.476,5.348-.477,7.616-1.579a15.335,15.335,0,0,0,2.737-1.852,18.027,18.027,0,0,1,2.379-1.671v.059a5.687,5.687,0,0,0,.034.982c.27,1.783.921,2.978,1.931,3.554a4.312,4.312,0,0,0,3.8-.107,11.777,11.777,0,0,0,3.821-2.8l.183-.178c.341-.33.716-.645,1.087-.958l.144-.121a12.767,12.767,0,0,1,.441,1.484c.555,2.278,1.612,3.776,3.055,4.344a3.791,3.791,0,0,0,1.384.252,7.128,7.128,0,0,0,3.848-1.388c.092-.061.182-.123.27-.185.374-.259.758-.525,1.009-.459.134.036.341.2.586.753a2.277,2.277,0,0,0,2.068,1.245,11.532,11.532,0,0,0,7.89-2.757c.1-.081.2-.158.284-.229.729-.592.944-.769,1.721-.258a4.488,4.488,0,0,0,3.625.558,11.265,11.265,0,0,0,5.148-2.862c.054.156.105.313.158.465l.018.051a17.7,17.7,0,0,0,.791,2.076,4.383,4.383,0,0,0,3.02,2.685,4.568,4.568,0,0,0,3.929-1.5,12.563,12.563,0,0,0,2.944-4.332c.044-.105.085-.221.128-.341.216-.611.333-.842.7-.842a8.16,8.16,0,0,0,2.958-.674l.037-.013c.27-.1.54-.2.809-.294a21.917,21.917,0,0,0,8.58-5.321l.324-.322a16.016,16.016,0,0,0,2.576-3.025c.27-.448.769-1.283.4-1.815a.821.821,0,0,0-.391-.294Zm-18.92,11.641h0c.585.254.65.384.656.4.014.045-.022.173-.27.539l-.033.053c-.521.866-2.372,3.642-4.261,3.11-.245-.07-.53-.4-.787-.927a7.44,7.44,0,0,1,0-6.586l.032-.066a6.137,6.137,0,0,0,3.75,3.126C2298.794,95.446,2299.095,95.553,2299.393,95.681Zm-2.223-4.72a3.835,3.835,0,0,1-.038-2.832c.379-1.079.826-1.618,1.332-1.618a.662.662,0,0,1,.135.013c1.521.281,2.25,2.293,2.436,2.9a8.286,8.286,0,0,1,.33,3.327.423.423,0,0,1-.224.281c-.4.2-1.193-.1-1.483-.209a3.924,3.924,0,0,1-2.487-1.86Zm-25.2,3.574a14.949,14.949,0,0,1,2.645-7.135c.288,2.649-1.975,6.37-2.645,7.139Zm-8.779-8.033a31.673,31.673,0,0,1,3.178-9.421,33.849,33.849,0,0,1-3.178,9.425Zm-5.426-.3h.066a2.245,2.245,0,0,1,.376.03c.778.135.889.692,1.006,1.281.024.119.046.228.073.322-.31,4.139-1.581,7.226-4,9.711-1,1.03-1.875,1.55-2.874.736-.73-.595-.749-1.531-.769-2.615v-.224c-.024-1.065.944-3.279,2.427-5.508,1.435-2.175,2.959-3.713,3.693-3.729Z" transform="translate(-1933.253 -62.519)" fill="#fff"/>
      <path id="Tracé_46" data-name="Tracé 46" d="M1498.04,108.82c-.646-.22-1.213.61-1.436.921l-.052.073a10.843,10.843,0,0,1-5.135,3.493,4.03,4.03,0,0,1-4.066-1.088,5.554,5.554,0,0,1-1.411-3.049,19.109,19.109,0,0,0,2-2.394,21.231,21.231,0,0,0,1.578-2.615c.964-2.072.9-3.743-.192-4.967-.79-.887-1.918.055-2.523.561l-.044.036c-2.715,2.263-3.237,5.987-3.3,8-.009.313-.54.843-.859,1.16l-.27.27a10.121,10.121,0,0,1-2.514,2.221c-.635.359-1.045.492-1.214.4-.121-.065-.283-.333-.36-1.245a10.226,10.226,0,0,1,1.017-4.78,42.368,42.368,0,0,0,3.571-15.546c0-.084,0-.17.01-.29.031-.674.076-1.691-.944-1.927s-1.484.618-1.813,1.258c-.058.109-.115.219-.174.322a13.969,13.969,0,0,0-1.432,4.863c-.135.781-.27,1.589-.462,2.387-.283,1.154-.576,2.347-.944,3.551l-.111-.206a4.568,4.568,0,0,0-2.619-2.037,3.292,3.292,0,0,0-2.615.689c-2.418,1.6-3.551,3.954-4.683,6.634a5.34,5.34,0,0,0-.256.87,2.2,2.2,0,0,1-.612,1.3,24.445,24.445,0,0,1-8.467,4.855c-.216.062-.472.109-.723.155a2.6,2.6,0,0,0-1.754.766,1.242,1.242,0,0,0-.162.962,1.3,1.3,0,0,0,.666.944c1.125.612,3.2-.173,3.6-.337a23.452,23.452,0,0,0,6.842-4.054v.05a5.121,5.121,0,0,0,.069,1.415c.488,2.012,1.206,3.173,2.257,3.656a2.749,2.749,0,0,0,1.146.239,5.7,5.7,0,0,0,2.562-.754,6.609,6.609,0,0,0,1.844-1.648c.257-.3.525-.6.8-.866.121-.117.243-.259.351-.384a2.15,2.15,0,0,1,.419-.422,1.921,1.921,0,0,1,.351.827,2.342,2.342,0,0,0,1.255,1.635,3.4,3.4,0,0,0,2.855-.337,14.25,14.25,0,0,0,3.6-2.821,6.444,6.444,0,0,0,7.635,4.374,8.888,8.888,0,0,0,4.815-2.449,13.236,13.236,0,0,0,1.962-2.521,2.293,2.293,0,0,0,.44-1.685A.769.769,0,0,0,1498.04,108.82Zm-9.539-7.435c.248,1.214-.674,3.036-2.554,5.027a2.584,2.584,0,0,1-.135-.517c-.032-1.747,1.548-3.488,2.689-4.51Zm-19.13,11.774a5.079,5.079,0,0,1-.465-3.207,15.827,15.827,0,0,1,2.262-6.339,7.972,7.972,0,0,1,1.726-2.143,2.138,2.138,0,0,1,1.136-.539.641.641,0,0,1,.236.043c.925.356.977,2.318,1,3.261a2.721,2.721,0,0,0,.009.289,14.039,14.039,0,0,1-.177,3.459c-.028.135-.061.262-.1.386-.61,2.011-2.71,3.989-4.324,5.071C1470.173,113.77,1469.82,113.694,1469.371,113.159Z" transform="translate(-1258.793 -76.15)" fill="#fff"/>
      <path id="Tracé_47" data-name="Tracé 47" d="M613.022,74.669h-.048a3.506,3.506,0,0,0-2.077,1.059,8.62,8.62,0,0,0-1.314,2.039c-.088.17-.177.34-.27.508a17.283,17.283,0,0,1-4.526,5.373c-.318.25-.734.521-1.107.39-.31-.108-.513-.463-.6-1.055a8.447,8.447,0,0,1,1.113-5.53l.055-.092a2.14,2.14,0,0,0,.434-1.191,1.079,1.079,0,0,0-.72-.944,1.816,1.816,0,0,0-1.826.279,4.463,4.463,0,0,0-1.1,2.414c-.028.123-.057.243-.086.363a12.949,12.949,0,0,1-4.391,6.915c-.374.3-.91.549-1.2.255a.946.946,0,0,1-.186-.583,19.855,19.855,0,0,1,1.156-8.767,3.488,3.488,0,0,0,.181-2.345,1.056,1.056,0,0,0-.627-.568,1.437,1.437,0,0,0-1.566.631,4.046,4.046,0,0,0-.539,1.447l-.033.135a19.125,19.125,0,0,1-5.584,9.554c-.309.285-.746.58-1.079.388a1.054,1.054,0,0,1-.37-.585c-.719-2.006-1.315-3.96-.732-5.8a9.509,9.509,0,0,1,2.843-3.76c.352-.333.715-.674,1.052-1.028A16.052,16.052,0,0,0,593.8,59.4a5.276,5.276,0,0,0-1.183-2.428,2.32,2.32,0,0,0-2.577-.591,3.288,3.288,0,0,0-1.279,1.444A40.975,40.975,0,0,0,584.3,72.277l-.015.1c-.059.4-.12.835-.205,1.245l-.018.088c-.127.608-.245,1.184-.322,1.8-.167.082-.642.308-1.126.491a9.88,9.88,0,0,1-1.484.467l-.417.111a4.537,4.537,0,0,0-6.719-5.279,3.741,3.741,0,0,0,.472-1.654,1.685,1.685,0,0,0-1.349-1.736c-.836-.078-1.554.634-2.09,2.117A40.346,40.346,0,0,1,560.9,85.511l-.043.04a4.157,4.157,0,0,0-1.153,1.484,1.48,1.48,0,0,0,.56,1.822c.6.3,1.332.04,2.178-.765a48.533,48.533,0,0,0,6.625-7.8c-1.537,7.443-2.906,15.016-4.07,22.523a3.927,3.927,0,0,0,.028,1.9,1.515,1.515,0,0,0,1.314,1.033,1.066,1.066,0,0,0,.27-.035c.809-.21,1.041-1.177,1.148-1.888l1.7-11.329.035.04a1.5,1.5,0,0,0,1.179.441,3.034,3.034,0,0,0,1.691-.951,27.358,27.358,0,0,0,5.721-7.508c.393-.755.781-1.6,1.222-2.642a12.8,12.8,0,0,0,.436-1.233c.062-.2.166-.674.191-.8a2.661,2.661,0,0,1,.449-.17l.058-.019c.394-.135.862-.3,1.338-.432.226-.059.454-.107.684-.152.177-.036.359-.073.539-.116a16.4,16.4,0,0,0,1.168,7.233,3.18,3.18,0,0,0,1.509,1.873,2.876,2.876,0,0,0,2.258-.2,9.845,9.845,0,0,0,4.429-3.677,6.985,6.985,0,0,0,.539,2.53,2.791,2.791,0,0,0,2.411,1.682,3.382,3.382,0,0,0,1.539-.521,11.211,11.211,0,0,0,3.744-3.427,3.534,3.534,0,0,0,5.975,1.087,3.053,3.053,0,0,0,1.152,2.749,2.272,2.272,0,0,0,2.529-.437,5.739,5.739,0,0,0,1.358-2.232,34.118,34.118,0,0,0,2.014-7.411c.02-.135.058-.3.1-.506.194-.916.487-2.293-.061-2.788A.962.962,0,0,0,613.022,74.669ZM609.54,84.42c-.128.446-.27.952-.7,1.079-.053.016-.082.016-.078.022a.822.822,0,0,1-.086-.351,2.065,2.065,0,0,0-.4-.893c-.339-.5-.419-.655-.042-.96a11.867,11.867,0,0,0,1.846-2.023c.1-.135.206-.27.313-.4C610.134,82.052,609.876,83.244,609.54,84.42ZM587.715,67.23c.193-.809.393-1.6.607-2.362.081-.29.162-.591.244-.9.151-.564.312-1.15.49-1.736.144-.437.291-.851.445-1.252a12.628,12.628,0,0,1,.568-1.284,7.219,7.219,0,0,1,.579-.923,1.73,1.73,0,0,1,.2-.229.588.588,0,0,1,.159-.109.352.352,0,0,1,.135-.028.252.252,0,0,1,.094.026c.349.209.5,1.382.55,1.844.009.082.019.152.026.206a16.384,16.384,0,0,1,.151,1.819v.206a17.986,17.986,0,0,1-.144,2.645.931.931,0,0,1-.019.135c-.026.179-.057.353-.088.527a12.6,12.6,0,0,1-.323,1.349c-.1.344-.223.674-.353,1.016-.015.038-.03.076-.046.113-.078.194-.169.383-.255.572a12.761,12.761,0,0,1-1.486,2.407,13.422,13.422,0,0,1-1.484,1.587c-.062.057-.189.159-.345.286-.441.359-.773.637-1,.852.066-.387.127-.792.186-1.188.067-.455.135-.9.208-1.3.05-.281.1-.539.156-.817C587.185,69.657,587.434,68.472,587.715,67.23ZM576.057,83.363c-.089.143-.161.255-.2.324-.186.322-.38.631-.578.936-.344.49-.723,1-1.155,1.542l-.283.357-.224.283c-.163.194-.327.39-.494.581l-.147.17c-.213.247-.433.5-.661.728.038-.143.091-.286.143-.426l.054-.148c.185-.514.376-1.024.572-1.533a19.233,19.233,0,0,1,1.145-2.515c.209-.375.432-.727.665-1.063a10.764,10.764,0,0,1,.957-1.2c.108-.115.217-.228.326-.341l.181-.187a3.1,3.1,0,0,1,.317-.289.765.765,0,0,1,.182-.1l.054-.016a.365.365,0,0,1,.1-.023.481.481,0,0,1,.279.109l.015.015a2.338,2.338,0,0,1-.258,1.079A18.692,18.692,0,0,1,576.057,83.363Zm-.223-5.112a8.495,8.495,0,0,0-1.285.929,10.892,10.892,0,0,0-1.984,2.358c-.243.379-.482.785-.727,1.242q-.169.313-.328.628c.034-.353.062-.7.09-1.047.228-2.788.639-5.692,2.885-7.849a3.854,3.854,0,0,1,2.623-1.118,1.1,1.1,0,0,1,1.037.634,3.586,3.586,0,0,1,.341,1.888v.163c0,.332-.008,1.214-.31,1.276-.228.049-.454.1-.674.155A6.309,6.309,0,0,0,575.835,78.251Z" transform="translate(-484.123 -48.617)" fill="#fff"/>
    </g>
  </g>
</svg>
