<svg xmlns="http://www.w3.org/2000/svg" width="28.448" height="28.378" viewBox="0 0 28.448 28.378">
  <path id="magasins" d="M11.362,25.481v2.881l-.7-.563A46.706,46.706,0,0,1,5.4,22.651C1.817,18.537,0,14.845,0,11.676v-.314a11.362,11.362,0,0,1,22.725,0v.314c0,.266-.014.536-.04.81l-2.222-2.027a9.145,9.145,0,0,0-18.246.9v.314C2.217,17.031,9.116,23.513,11.362,25.481Zm6.817-1.592h3.325V20.563H18.18ZM11.362,6.651a4.711,4.711,0,1,1-4.711,4.711A4.717,4.717,0,0,1,11.362,6.651Zm0,2.217a2.494,2.494,0,1,0,2.494,2.494A2.5,2.5,0,0,0,11.362,8.868ZM26.954,22.382l-.623-.569v3.559a3.009,3.009,0,0,1-3.006,3.006H16.305A3.009,3.009,0,0,1,13.3,25.373V21.813l-.623.569-1.494-1.638,8.633-7.876,8.633,7.876Zm-2.84-2.591-4.3-3.921-4.3,3.921v5.582a.79.79,0,0,0,.789.789h7.019a.79.79,0,0,0,.789-.789Zm0,0" fill="#fff"/>
</svg>
